<svg width="17" height="18" viewBox="0 0 17 18" fill="none" xmlns="http://www.w3.org/2000/svg">
<path d="M10.625 12L10.4696 12.7337C10.8097 12.8057 11.1547 12.6346 11.3032 12.3203L10.625 12ZM5.66667 6.75L5.31575 6.08716C5.02518 6.24099 4.86867 6.56614 4.9297 6.8892L5.66667 6.75ZM5.91743 6.61724L6.26834 7.28009L5.91743 6.61724ZM6.59922 4.71852L7.30082 4.45347V4.45347L6.59922 4.71852ZM6.02288 3.19291L5.32127 3.45796V3.45797L6.02288 3.19291ZM13.9845 11.6228L13.692 12.3134L13.9845 11.6228ZM12.5436 11.0126L12.8361 10.322H12.8361L12.5436 11.0126ZM10.7504 11.7345L11.4286 12.0547L11.4286 12.0547L10.7504 11.7345ZM11.2917 8.25C11.2917 8.66421 11.6275 9 12.0417 9C12.4559 9 12.7917 8.66421 12.7917 8.25H11.2917ZM11.826 7.10195L12.5244 6.82871L11.826 7.10195ZM10.2926 5.47836L10.5938 4.79152L10.2926 5.47836ZM9.20833 4.5C8.79412 4.5 8.45833 4.83579 8.45833 5.25C8.45833 5.66421 8.79412 6 9.20833 6V4.5ZM14.125 8.25C14.125 8.66421 14.4608 9 14.875 9C15.2892 9 15.625 8.66421 15.625 8.25H14.125ZM14.4437 5.9539L15.1421 5.68066L14.4437 5.9539ZM11.3769 2.70672L11.6781 2.01988V2.01988L11.3769 2.70672ZM9.20833 1.5C8.79412 1.5 8.45833 1.83579 8.45833 2.25C8.45833 2.66421 8.79412 3 9.20833 3V1.5ZM14.125 13.0155V14.25H15.625V13.0155H14.125ZM3.54167 3H4.70754V1.5H3.54167V3ZM10.625 12C10.7804 11.2663 10.7806 11.2663 10.7808 11.2664C10.7809 11.2664 10.7811 11.2664 10.7812 11.2665C10.7815 11.2665 10.7817 11.2666 10.7819 11.2666C10.7823 11.2667 10.7826 11.2668 10.7828 11.2668C10.7832 11.2669 10.7832 11.2669 10.7828 11.2668C10.782 11.2666 10.7795 11.2661 10.7755 11.2651C10.7674 11.2632 10.7532 11.2598 10.7332 11.2547C10.6932 11.2444 10.6305 11.2272 10.5492 11.2019C10.3861 11.1511 10.1501 11.068 9.87242 10.942C9.3144 10.6888 8.60666 10.2706 7.98276 9.61003L6.89224 10.64C7.68501 11.4794 8.57102 11.9987 9.25258 12.308C9.59474 12.4632 9.8899 12.5676 10.1032 12.634C10.21 12.6673 10.2967 12.6912 10.3591 12.7073C10.3903 12.7153 10.4155 12.7214 10.434 12.7257C10.4433 12.7279 10.451 12.7296 10.4569 12.731C10.4599 12.7316 10.4625 12.7322 10.4646 12.7326C10.4656 12.7329 10.4666 12.7331 10.4674 12.7333C10.4679 12.7334 10.4682 12.7334 10.4686 12.7335C10.4688 12.7336 10.469 12.7336 10.4691 12.7336C10.4694 12.7337 10.4696 12.7337 10.625 12ZM7.98276 9.61003C7.35753 8.94803 6.95882 8.19341 6.71604 7.59361C6.59549 7.29576 6.51574 7.04193 6.46678 6.86567C6.44235 6.77772 6.42572 6.70959 6.41561 6.66557C6.41056 6.64358 6.40714 6.62765 6.4052 6.61833C6.40423 6.61367 6.40363 6.61067 6.40337 6.60939C6.40324 6.60875 6.4032 6.60854 6.40325 6.60877C6.40327 6.60889 6.40331 6.60911 6.40338 6.60945C6.40341 6.60962 6.40345 6.60981 6.40349 6.61004C6.40351 6.61015 6.40355 6.61034 6.40356 6.6104C6.4036 6.61059 6.40363 6.6108 5.66667 6.75C4.9297 6.8892 4.92974 6.88942 4.92978 6.88965C4.9298 6.88973 4.92984 6.88996 4.92987 6.89013C4.92994 6.89047 4.93001 6.89084 4.93008 6.89123C4.93024 6.89203 4.93041 6.89293 4.93061 6.89396C4.931 6.896 4.93149 6.89851 4.93208 6.90146C4.93325 6.90737 4.93481 6.91508 4.93678 6.92452C4.94072 6.94339 4.94629 6.96921 4.95369 7.00142C4.96848 7.0658 4.9906 7.15588 5.0215 7.26714C5.08322 7.48932 5.18055 7.79799 5.32562 8.15639C5.61409 8.86909 6.1008 9.80197 6.89224 10.64L7.98276 9.61003ZM6.01758 7.41284L6.26834 7.28009L5.56651 5.9544L5.31575 6.08716L6.01758 7.41284ZM7.30082 4.45347L6.72448 2.92786L5.32127 3.45797L5.89761 4.98357L7.30082 4.45347ZM14.277 10.9322L12.8361 10.322L12.2511 11.7032L13.692 12.3134L14.277 10.9322ZM10.0722 11.4142L9.94681 11.6797L11.3032 12.3203L11.4286 12.0547L10.0722 11.4142ZM12.8361 10.322C11.7585 9.86556 10.5626 10.3757 10.0722 11.4142L11.4286 12.0547C11.5971 11.6978 11.9606 11.5802 12.2511 11.7032L12.8361 10.322ZM6.26834 7.28009C7.28068 6.74414 7.7001 5.51037 7.30082 4.45347L5.89761 4.98357C6.04561 5.37533 5.87219 5.79257 5.56651 5.9544L6.26834 7.28009ZM4.70754 3C4.95426 3 5.20892 3.16056 5.32127 3.45796L6.72448 2.92786C6.40656 2.08629 5.61938 1.5 4.70754 1.5V3ZM15.625 13.0155C15.625 12.1207 15.1098 11.285 14.277 10.9322L13.692 12.3134C13.9348 12.4163 14.125 12.6837 14.125 13.0155H15.625ZM13.4583 15C7.65313 15 2.875 10.0042 2.875 3.75H1.375C1.375 10.7507 6.74508 16.5 13.4583 16.5V15ZM13.4583 16.5C14.6948 16.5 15.625 15.4517 15.625 14.25H14.125C14.125 14.7052 13.7867 15 13.4583 15V16.5ZM2.875 3.75C2.875 3.29482 3.21329 3 3.54167 3V1.5C2.30524 1.5 1.375 2.54833 1.375 3.75H2.875ZM12.7917 8.25C12.7917 7.76331 12.7012 7.28047 12.5244 6.82871L11.1275 7.37519C11.2356 7.65138 11.2917 7.94876 11.2917 8.25H12.7917ZM12.5244 6.82871C12.3477 6.37691 12.0876 5.9637 11.7571 5.61371L10.6665 6.64365C10.8622 6.85081 11.0195 7.09904 11.1275 7.37519L12.5244 6.82871ZM11.7571 5.61371C11.4264 5.26363 11.0316 4.9835 10.5938 4.79152L9.99137 6.16521C10.2411 6.27475 10.471 6.43657 10.6665 6.64365L11.7571 5.61371ZM10.5938 4.79152C10.156 4.59948 9.68505 4.5 9.20833 4.5V6C9.47577 6 9.74171 6.05571 9.99137 6.16521L10.5938 4.79152ZM15.625 8.25C15.625 7.36934 15.4612 6.4964 15.1421 5.68066L13.7452 6.22714C13.9956 6.86731 14.125 7.5548 14.125 8.25H15.625ZM15.1421 5.68066C14.823 4.86488 14.3542 4.12096 13.7605 3.49239L12.67 4.52233C13.1288 5.00806 13.4948 5.58701 13.7452 6.22714L15.1421 5.68066ZM13.7605 3.49239C13.1668 2.86374 12.4596 2.36262 11.6781 2.01988L11.0756 3.39357C11.6692 3.65388 12.2113 4.03668 12.67 4.52233L13.7605 3.49239ZM11.6781 2.01988C10.8965 1.67708 10.0571 1.5 9.20833 1.5V3C9.84785 3 10.4822 3.13331 11.0756 3.39357L11.6781 2.01988Z" fill="#EE5F73"/>
</svg>
