<svg width="32" height="32" viewBox="0 0 32 32" fill="none" xmlns="http://www.w3.org/2000/svg">
<circle cx="16" cy="16" r="16" fill="white"/>
<g clip-path="url(#clip0_47_65087)">
<path d="M20.5379 13.7994L19.7927 13.884L20.5379 13.7994ZM20.8631 16.6649L21.6084 16.5804L20.8631 16.6649ZM11.137 16.6649L10.3918 16.5804H10.3918L11.137 16.6649ZM11.4622 13.7994L12.2074 13.884L11.4622 13.7994ZM10.5075 18.0881L9.93644 17.602H9.93644L10.5075 18.0881ZM21.4926 18.0881L20.9215 18.5742V18.5743L21.4926 18.0881ZM17.6509 10.4529H16.9009C16.9009 10.7734 17.1047 11.0586 17.408 11.1624L17.6509 10.4529ZM14.3492 10.4529L14.5921 11.1624C14.8954 11.0586 15.0992 10.7734 15.0992 10.4529H14.3492ZM18.8842 22.0807C19.0295 21.6928 18.833 21.2605 18.4451 21.1152C18.0572 20.9698 17.625 21.1664 17.4796 21.5543L18.8842 22.0807ZM14.5205 21.5543C14.3752 21.1664 13.9429 20.9698 13.555 21.1152C13.1672 21.2605 12.9706 21.6928 13.1159 22.0807L14.5205 21.5543ZM20.2017 19.6129H11.7985V21.1129H20.2017V19.6129ZM19.7927 13.884L20.1179 16.7495L21.6084 16.5804L21.2831 13.7148L19.7927 13.884ZM11.8822 16.7495L12.2074 13.884L10.717 13.7148L10.3918 16.5804L11.8822 16.7495ZM11.0787 18.5743C11.5235 18.0516 11.806 17.4213 11.8822 16.7495L10.3918 16.5804C10.3509 16.9408 10.198 17.2947 9.93644 17.602L11.0787 18.5743ZM20.1179 16.7495C20.1942 17.4213 20.4766 18.0516 20.9215 18.5742L22.0637 17.602C21.8021 17.2947 21.6493 16.9408 21.6084 16.5804L20.1179 16.7495ZM11.7985 19.6129C11.3928 19.6129 11.1252 19.4144 11.0075 19.2068C10.8971 19.0123 10.8965 18.7882 11.0787 18.5742L9.93644 17.602C9.32076 18.3252 9.30077 19.2386 9.70289 19.9472C10.0976 20.6427 10.8745 21.1129 11.7985 21.1129V19.6129ZM20.2017 21.1129C21.1257 21.1129 21.9025 20.6427 22.2972 19.9472C22.6994 19.2386 22.6794 18.3252 22.0637 17.602L20.9215 18.5743C21.1036 18.7882 21.103 19.0123 20.9927 19.2068C20.8749 19.4144 20.6074 19.6129 20.2017 19.6129V21.1129ZM18.4009 10.4529V10.3774H16.9009V10.4529H18.4009ZM21.2831 13.7148C21.0696 11.8339 19.6773 10.3539 17.8939 9.7433L17.408 11.1624C18.7408 11.6188 19.6554 12.6747 19.7927 13.884L21.2831 13.7148ZM15.0992 10.4529V10.3774H13.5992V10.4529H15.0992ZM12.2074 13.884C12.3447 12.6747 13.2593 11.6188 14.5921 11.1624L14.1063 9.7433C12.3229 10.3539 10.9305 11.8339 10.717 13.7148L12.2074 13.884ZM16.0001 9.47656C16.4976 9.47656 16.9009 9.8799 16.9009 10.3774H18.4009C18.4009 9.05147 17.326 7.97656 16.0001 7.97656V9.47656ZM16.0001 7.97656C14.6741 7.97656 13.5992 9.05147 13.5992 10.3774H15.0992C15.0992 9.8799 15.5025 9.47656 16.0001 9.47656V7.97656ZM17.4796 21.5543C17.276 22.0976 16.7069 22.522 16.0001 22.522V24.022C17.3078 24.022 18.4526 23.2322 18.8842 22.0807L17.4796 21.5543ZM16.0001 22.522C15.2932 22.522 14.7242 22.0976 14.5205 21.5543L13.1159 22.0807C13.5475 23.2322 14.6923 24.022 16.0001 24.022V22.522Z" fill="#EE5F73"/>
</g>
<defs>
<clipPath id="clip0_47_65087">
<rect width="17.4545" height="17.4545" fill="white" transform="translate(7.27271 7.27246)"/>
</clipPath>
</defs>
</svg>
