<svg width="328" height="39" viewBox="0 0 328 39" fill="none" xmlns="http://www.w3.org/2000/svg">
<g filter="url(#filter0_d_47_64490)">
<path d="M4 10C4 4.47715 8.47715 0 14 0H314C319.523 0 324 4.47715 324 10V21C324 26.5228 319.523 31 314 31H14C8.47715 31 4 26.5228 4 21V10Z" fill="white"/>
<path d="M4.5 10C4.5 4.75329 8.75329 0.5 14 0.5H314C319.247 0.5 323.5 4.75329 323.5 10V21C323.5 26.2467 319.247 30.5 314 30.5H14C8.75329 30.5 4.5 26.2467 4.5 21V10Z" stroke="black" stroke-opacity="0.2"/>
</g>
<defs>
<filter id="filter0_d_47_64490" x="0" y="0" width="328" height="39" filterUnits="userSpaceOnUse" color-interpolation-filters="sRGB">
<feFlood flood-opacity="0" result="BackgroundImageFix"/>
<feColorMatrix in="SourceAlpha" type="matrix" values="0 0 0 0 0 0 0 0 0 0 0 0 0 0 0 0 0 0 127 0" result="hardAlpha"/>
<feOffset dy="4"/>
<feGaussianBlur stdDeviation="2"/>
<feComposite in2="hardAlpha" operator="out"/>
<feColorMatrix type="matrix" values="0 0 0 0 0 0 0 0 0 0 0 0 0 0 0 0 0 0 0.05 0"/>
<feBlend mode="normal" in2="BackgroundImageFix" result="effect1_dropShadow_47_64490"/>
<feBlend mode="normal" in="SourceGraphic" in2="effect1_dropShadow_47_64490" result="shape"/>
</filter>
</defs>
</svg>
