<svg width="15" height="16" viewBox="0 0 15 16" fill="none" xmlns="http://www.w3.org/2000/svg">
<path d="M14.2753 15.8665C14.6634 16.2782 15.2624 15.6428 14.8743 15.2401L11.7104 11.8753C12.8203 10.5728 13.4337 8.87903 13.4316 7.12339C13.4316 3.19479 10.4196 0 6.71579 0C3.01198 0 0 3.19479 0 7.12339C0 11.052 3.01198 14.2468 6.71579 14.2468C8.3863 14.2468 9.93025 13.5935 11.1114 12.5107L14.2753 15.8665ZM0.842848 7.12339C0.842848 3.68698 3.4836 0.894898 6.71494 0.894898C9.95472 0.894898 12.587 3.68698 12.587 7.12339C12.587 10.5598 9.95472 13.3519 6.71494 13.3519C3.4836 13.3519 0.842848 10.5598 0.842848 7.12339Z" fill="#5B5B5B"/>
</svg>
